<svg xmlns="http://www.w3.org/2000/svg" viewBox="50.635000000000005 93.36500549316406 473.7300109863281 403.48598289489746"> <svg xmlns="http://www.w3.org/2000/svg" xmlns:xlink="http://www.w3.org/1999/xlink" version="1.1" id="Layer_1" x="172.50000762939453" y="163.36500549316406" viewBox="40.27840042114258 45.322322845458984 202.40386962890625 161.33767700195312" xml:space="preserve" height="183.330078125" width="230" preserveAspectRatio="xMinYMin" enable-background="new 0 0 282.97 237.89" style="overflow: visible;"><path class="st19" d="M227.79,94.83c-1.14-1.47-3.16-4.09-5.96-6.68c-0.48-4.2-2.14-9.19-6-14.8   c-10.51-15.29-24.46-18.86-34.19-17.11c-2.47-1.88-5.36-3.5-8.62-4.85c-11.29-4.65-24.01-5-35.51-1.09   c-5.33-3.33-11.68-5.11-17.55-4.97c-12.37,0.25-22.81,6.73-30.53,12.35c-1.19,0.86-2.38,1.77-3.54,2.75   c-6.05,0.37-12.22,3.15-18.41,8.3c-10.15,8.46-18.7,21.93-19.33,36.3c-5.52,5.93-8.5,14.59-7.76,23.69   c1.36,16.77,14.92,31.44,31.53,34.13c1.87,0.3,4.8-0.27,7.66-1.06c4.52-1.25,9.45-0.28,13,2.78c5.81,4.99,15.88,7.79,31.3,8.56   l10.52,4.21c0.08,0.1,0.15,0.21,0.23,0.32c5.98,7.73,16.8,10.78,26.35,13.48c3.58,1.01,9.18,2.59,11.79,3.98   c-0.75,4.76,2.05,9.5,6.78,11.04c1.03,0.34,2.08,0.5,3.1,0.5c4.21,0,8.13-2.68,9.5-6.9c2.01-6.15,0.58-10.89-0.96-13.79   c-4.45-8.34-14.79-11.26-24.79-14.08c-0.19-0.05-0.37-0.11-0.57-0.16c1.44-0.12,2.91-0.26,4.39-0.4c4.78-0.45,13.68-1.28,19.02-8.7   c0.02-0.02,0.03-0.04,0.05-0.06c2.49-3.49,6.84-5.18,10.93-3.88c3.38,1.07,6.5,1.68,9.1,1.63c10.99-0.23,24.69-5.92,30.53-18.13   C246.08,129.19,242.02,113.26,227.79,94.83z" style="fill: #ECD8F9; fill-opacity: 0;"></path><path d="M75.72,150.51c-11.77-1.99-22.33-13.39-21.51-25.67c0.4-5.92,3.56-12.1,9.36-14.27c2.65-0.99,5.73-0.97,8.34,0.13    c1.23,0.52,2.37,1.31,3.17,2.39c0.7,0.94,0.92,1.8,0.93,2.72c0,0.79-0.24,1.84-0.75,2.76c-0.53,0.96-1.3,1.8-2.29,2.3    c-2.63,1.31-5.53-0.09-7.29-2.17c-4.06-4.78-4.24-12.09-2.98-17.92c1.42-6.53,5.03-12.64,9.48-17.57    c4.59-5.08,11.21-10.88,18.54-10.28c2.77,0.23,5.32,1.92,6.63,4.38c0.22,0.41,0.41,0.9,0.52,1.29c0.15,0.54,0.18,0.98,0.15,1.27    c-0.09,1.02-0.8,2.12-1.8,2.7c-2.79,1.64-5.81-1.19-5.84-4c-0.04-3.28,2.35-5.98,4.67-8.01c2.85-2.49,6.06-4.66,9.29-6.63    c3.29-2,6.77-3.73,10.46-4.87c6.3-1.94,13.16-1.72,18.88,1.79c4.18,2.56,8.9,8.15,6.53,13.33c-1.05,2.3-3.67,3.52-5.95,2.12    c-2.16-1.33-3.05-3.95-2.06-6.19c1.28-2.89,4.22-4.84,6.95-6.19c3.42-1.69,7.16-2.8,10.93-3.36c7.66-1.13,15.64-0.11,22.66,3.21    c3.11,1.47,6.1,3.52,8.04,6.41c1.67,2.49,2.6,5.9,1.14,8.71c-1.34,2.58-4.41,4.6-7.4,4.02c-2.13-0.42-5.16-2.8-4.06-5.21    c0.62-1.35,1.92-2.37,3.1-3.2c1.5-1.06,3.14-1.98,4.74-2.89c3.33-1.88,6.83-3.37,10.71-3.32c6.88,0.09,13.18,4.47,17.48,9.56    c3.51,4.15,9.09,12.32,4.48,17.53c-1.62,1.83-4.26,3.17-6.75,2.73c-0.96-0.17-2.87-1-3-2.15c-0.08-0.71,1.27-1.68,1.87-2.02    c6.22-3.49,12.93,2.67,16.61,7.12c4.59,5.54,8.76,11.75,11.41,18.47c0.94,2.38,1.6,4.77,1.99,7.31c0.06,0.39,0.08,0.56,0.12,1.24    c0.04,0.56,0.06,1.13,0.05,1.69c0,0.23-0.01,0.47-0.02,0.7c-0.01,0.49,0.03-0.23-0.01,0.25c-0.04,0.51-0.1,1.03-0.18,1.54    c-0.07,0.46-0.16,0.91-0.27,1.36c-0.06,0.27,0.01-0.05,0.02-0.09c-0.04,0.13-0.07,0.27-0.11,0.4c-0.07,0.23-0.14,0.46-0.21,0.68    c-0.32,0.97-0.58,1.56-0.89,2.13c-0.4,0.76-0.86,1.5-1.37,2.19c-0.34,0.47-0.28,0.39-0.56,0.71c-0.29,0.33-0.58,0.65-0.88,0.97    c-4.19,4.3-10.38,6.72-16.27,7.15c-3.67,0.27-7.08-0.98-10.5-2.38c-5.02-2.06-9.83-4.65-14.5-7.42    c-4.28-2.53-8.48-5.25-12.44-8.25c-3.72-2.81-6.79-5.94-8.46-10.42c-1-2.69-1.39-5.77-0.52-8.55c0.92-2.94,3.02-5.3,5.74-6.73    c5.68-2.98,12.57-1.47,16.18,3.92c0.79,1.18,1.37,2.5,1.66,3.89c0.23,1.13,0.44,2.73-0.31,3.72c-1.72,2.26-6.14,1.7-8.6,1.59    c-6.1-0.27-12.22-1.57-17.74-4.21c-2.65-1.27-5.12-2.88-7.26-4.9c-2.08-1.96-3.37-4.22-4.7-6.71c-2.36-4.44-7.33-6.03-12.04-6.46    c-3.63-0.33-7.97-0.27-11.43,1.05c-2.49,0.95-4.7,3.04-5.18,5.73c-0.47,2.66,0.74,5.2,2.64,7.01c1.69,1.6,3.95,2.74,6.25,3.06    c1.33,0.19,2.65-0.16,3.95-0.42c1.64-0.33,3.28-0.72,4.88-1.21c4.09-1.26,8.54-3.36,10.79-7.22c3.39-5.83,0.54-13.34-4.85-16.85    c-1.06-0.69-2.18-1.27-3.42-1.54c-3.24-0.68-6.76-0.75-10.05-0.51c-6.76,0.5-13.69,3.03-17.94,8.55    c-3.74,4.86-4.59,11.32-5.55,17.19c-0.87,5.34-1.77,12.32-6.57,15.7c-1.94,1.36-5.26,2.51-7.24,0.61    c-1.1-1.05-1.33-2.74-1.46-4.18c-0.15-1.71-0.06-3.42,0.31-5.09c1.39-6.29,8.01-11.66,14.61-9.46c1.85,0.61,3.24,2.24,4.39,3.87    c1.59,2.25,2.8,4.72,3.82,7.27c0.97,2.43,1.77,4.93,2.22,7.51c0.2,1.16,0.21,1.37,0.23,2.68c0.01,0.74,0.11,1.44,0.36,2.13    c0.78,2.11,2.68,3.43,4.6,4.41c2.45,1.26,5.15,2.03,7.83,2.62c6.13,1.35,12.79,1.99,19.01,0.81c2.49-0.47,5.06-1.21,7-2.92    c2.14-1.87,2.83-4.76,2.35-7.5c-0.61-3.47-2.93-6.41-5.25-8.93c-1.67-1.81-3.54-3.86-5.79-4.93c-2.65-1.25-5.81-1.12-8.6-0.53    c-3.13,0.67-6.14,1.86-8.88,3.52c-3.2,1.94-6.01,4.51-8.91,6.86c-6.24,5.04-12.56,10-18.73,15.13c-1.58,1.31-2.98,2.82-4.21,4.45    c-1.62,2.16-2.82,4.7-2.99,7.42c-0.21,3.38,1.3,6.47,4.01,8.49c4.12,3.07,9.56,4.12,14.52,4.88c9.77,1.49,19.78,1.42,29.63,1.08    c7.48-0.26,14.95-0.77,22.41-1.42c6.33-0.55,14.81-0.61,17.75-7.47c2.73-6.37-1.04-14.02-7.21-16.6    c-6.75-2.82-14.78-0.58-20.84,2.89c-6.3,3.61-12.78,9.23-15.23,16.27c-1.25,3.58-1.46,7.64-0.13,11.22    c0.86,2.31,2.53,4.23,4.46,5.71c3.39,2.61,7.52,4.18,11.55,5.49c4.43,1.44,8.96,2.55,13.4,3.94c3.43,1.07,7.19,2.3,9.88,4.41    c0.3,0.23,0.58,0.48,0.86,0.74c0.12,0.12,0.24,0.24,0.36,0.36c0.16,0.17-0.05-0.05-0.06-0.07c0.07,0.08,0.14,0.17,0.21,0.25    c0.19,0.26,0.37,0.52,0.55,0.79c0.2,0.31-0.13-0.33,0.07,0.13c0.06,0.14,0.12,0.29,0.18,0.43c0.25,0.51-0.05-0.3,0.04,0.09    c0.04,0.16,0.07,0.31,0.1,0.47c0.12,0.5,0.02,0.04,0.02,0.07c0,0.17,0.01,0.34,0.02,0.5c0.04,0.57,0.06-0.32,0,0.13    c-0.02,0.18-0.04,0.36-0.07,0.54c-0.02,0.1-0.15,0.72-0.08,0.45c0.06-0.25-0.12,0.4-0.15,0.48c-0.34,1.06-0.28,2.62,0.67,3.38    c0.9,0.72,1.9,0.02,2.21-0.94c1.28-4.04,0.68-8.21-2.39-11.26c-2.81-2.79-6.92-4.22-10.6-5.42c-4.66-1.51-9.43-2.66-14.09-4.16    c-4.09-1.31-8.41-2.82-11.7-5.58c-0.34-0.28-0.66-0.58-0.97-0.89c-0.43-0.43-0.42-0.42-0.81-0.95c-0.98-1.33-1.34-2.92-1.29-4.56    c0.11-3.53,2.08-6.79,4.36-9.37c5.05-5.72,12.19-10.53,19.87-11.61c3.6-0.51,7.61-0.25,10.71,1.82c2.17,1.45,3.91,4.07,3.72,6.69    c-0.23,3.17-3.47,4.78-6.18,5.5c-3.72,0.99-7.77,1.04-11.59,1.36c-13.25,1.1-26.63,1.88-39.92,1.12    c-6.78-0.39-13.67-0.91-19.92-3.68c-0.49-0.22-0.98-0.45-1.45-0.71c-0.2-0.11-0.39-0.22-0.58-0.33c0.51,0.3-0.16-0.11-0.3-0.2    c-0.68-0.46-1.26-0.99-1.84-1.57c0.38,0.38,0.16,0.19-0.03-0.05c-0.11-0.14-0.22-0.29-0.32-0.43c-0.09-0.13-0.16-0.28-0.26-0.41    c-0.19-0.26,0.22,0.55,0.02,0.02c-0.05-0.14-0.12-0.28-0.18-0.42c-0.23-0.53,0.11-0.19,0.02,0.11c0.03-0.1-0.13-0.78-0.18-0.88    c0.1,0.18,0.04,0.74,0.03,0.2c0-0.15,0-0.3-0.01-0.45c-0.02-0.61-0.05,0.32-0.02,0.18c0.03-0.15,0.03-0.31,0.05-0.45    c0.02-0.13,0.05-0.26,0.07-0.39c0.08-0.53,0.06-0.11-0.03,0.09c0.12-0.26,0.17-0.56,0.26-0.83c0.1-0.28,0.23-0.54,0.34-0.82    c0.13-0.32-0.31,0.58-0.02,0.05c0.08-0.14,0.15-0.28,0.23-0.42c0.29-0.52,0.61-1.03,0.96-1.51c0.18-0.25,0.36-0.49,0.55-0.74    c0.24-0.32,0.15-0.18-0.03,0.03c0.1-0.12,0.19-0.24,0.29-0.35c0.36-0.41,0.72-0.82,1.1-1.21c0.62-0.64,1.27-1.25,1.96-1.82    c6.42-5.34,13.01-10.51,19.51-15.76c2.9-2.34,5.69-4.91,9.02-6.64c2.91-1.51,6.12-2.65,9.42-2.81c1.42-0.07,2.83,0.04,4.16,0.55    c1.3,0.5,2.25,1.44,3.25,2.38c1.61,1.51,2.96,2.91,4.22,4.68c0.25,0.35,0.49,0.71,0.71,1.07c0.1,0.17,0.2,0.34,0.3,0.52    c0.17,0.3-0.13-0.31,0.11,0.22c0.13,0.29,0.27,0.59,0.39,0.89c0.06,0.15,0.11,0.31,0.16,0.46c-0.16-0.44-0.07-0.29,0,0.04    c0.03,0.14,0.05,0.29,0.09,0.43c0.13,0.43-0.01-0.3-0.01-0.19c0,0.13,0.02,0.27,0.02,0.4c0.02,0.47-0.07,0.24,0.02-0.11    c-0.07,0.3-0.31,0.93,0,0.23c-0.09,0.21-0.16,0.45-0.24,0.67c0.24-0.68-0.02-0.03-0.16,0.2c-0.04,0.07-0.31,0.42-0.09,0.13    c0.23-0.28-0.09,0.1-0.15,0.16c-0.17,0.16-0.33,0.33-0.51,0.48c-0.1,0.08-0.21,0.16-0.31,0.24c-0.31,0.25,0.26-0.15-0.09,0.07    c-1.06,0.65-2.2,1.11-3.4,1.45c-0.83,0.23-0.86,0.24-1.76,0.4c-0.74,0.13-1.48,0.23-2.23,0.31c-1.64,0.17-3.29,0.22-4.93,0.2    c-6.22-0.09-12.62-0.91-18.27-3.72c-0.26-0.13-0.52-0.27-0.78-0.41c-0.1-0.05-0.49-0.3-0.07-0.03c-0.13-0.08-0.26-0.16-0.38-0.25    c-0.4-0.28-0.77-0.57-1.14-0.9c-0.08-0.07-0.15-0.16-0.23-0.23c-0.08-0.08,0.29,0.4,0.11,0.11c-0.1-0.16-0.23-0.37-0.35-0.52    c0.12,0.14,0.25,0.52,0.11,0.18c-0.08-0.21-0.12-0.51,0.07,0.27c-0.15-0.63-0.06,0.44-0.02,0.08c0.28-2.28-0.45-4.94-1.03-7.12    c-0.81-3.01-1.88-5.96-3.24-8.77c-1.28-2.65-2.77-5.22-4.75-7.41c-1.85-2.05-3.96-3.23-6.73-3.52    c-7.66-0.81-13.88,5.41-15.68,12.38c-1.5,5.78-1.32,18.47,7.53,17.59c6.95-0.69,10.47-7.66,12.02-13.67    c1.59-6.15,1.67-12.78,4.13-18.68c2.64-6.34,9.3-9.57,15.81-10.44c3.7-0.49,7.4-0.3,11.1,0.15c0.58,0.07-0.02-0.02,0.21,0.03    c0.13,0.03,0.27,0.06,0.4,0.1c0.3,0.09,0.59,0.19,0.87,0.31c0.26,0.11,0.51,0.23,0.76,0.36c0.14,0.07,0.28,0.15,0.41,0.23    c-0.34-0.2,0.06,0.04,0.19,0.13c0.55,0.38,1.08,0.8,1.57,1.25c0.25,0.24,0.5,0.48,0.73,0.74c-0.32-0.35,0.31,0.38,0.43,0.54    c0.21,0.28,0.42,0.57,0.6,0.87c0.09,0.15,0.18,0.3,0.27,0.45c0.26,0.44-0.13-0.31,0.09,0.17c0.14,0.3,0.28,0.59,0.39,0.89    c0.06,0.16,0.12,0.33,0.17,0.49c0.11,0.29-0.12-0.46-0.05-0.16c0.02,0.1,0.05,0.19,0.07,0.29c0.03,0.17,0.07,0.34,0.11,0.51    c0.02,0.1,0.09,0.71,0.05,0.26c-0.04-0.37,0,0.56,0.01,0.78c0,0.03,0.08-0.5-0.01,0.01c-0.03,0.17-0.06,0.35-0.08,0.52    c-0.06,0.52,0.12-0.31-0.01,0.08c-0.07,0.2-0.13,0.4-0.2,0.6c-0.05,0.15-0.12,0.3-0.19,0.45c0.22-0.49-0.03,0.04-0.1,0.16    c-0.23,0.38-0.46,0.74-0.73,1.09c0.21-0.26-0.16,0.17-0.23,0.24c-0.16,0.17-0.32,0.33-0.48,0.49c-0.35,0.34-0.73,0.65-1.12,0.95    c-2,1.52-4.48,2.47-6.87,3.21c-1.65,0.51-3.33,0.9-5.02,1.21c-1.22,0.22-2.32,0.43-3.51,0.09c-1.05-0.3-2.08-0.77-2.96-1.4    c-0.77-0.55-1.68-1.47-1.94-1.96c-0.07-0.13-0.11-0.27-0.17-0.4c0.01,0.03,0.12,0.34,0.03,0.08c-0.08-0.26,0.01,0.08,0,0.14    c0.07-0.38-0.14-0.01-0.03,0.03c-0.05-0.02,0.01-0.14,0.07-0.24c-0.12,0.21,0.18-0.28,0.23-0.34c0.69-0.87,1.83-1.52,2.87-1.89    c0.82-0.29,0.91-0.27,1.76-0.42c0.97-0.17,1.96-0.3,2.95-0.38c2.42-0.2,4.89-0.19,7.3,0.19c2.16,0.34,4.46,1.04,6.18,2.43    c2,1.62,2.61,4.22,4.21,6.41c3.77,5.16,9.47,8.58,15.44,10.63c3.15,1.08,6.43,1.79,9.73,2.22c3.15,0.42,6.5,0.7,9.67,0.33    c1.68-0.19,3.36-0.66,4.67-1.77c1.48-1.25,2.2-3.2,2.41-5.09c0.4-3.72-0.67-7.54-2.7-10.65c-3.86-5.9-11.05-8.5-17.71-6.05    c-6.92,2.55-10.73,9.59-10.21,16.78c0.46,6.31,3.53,12.38,8.31,16.53c3.54,3.07,7.52,5.69,11.47,8.19    c4.94,3.12,10.03,6.05,15.31,8.55c4.06,1.92,8.56,3.96,13.11,4.24c3.02,0.19,6.23-0.53,9.08-1.44c3.33-1.06,6.5-2.72,9.2-4.95    c7.09-5.87,8.85-15.21,6.73-23.88c-1.66-6.78-5.09-13.03-9.02-18.74c-2.27-3.3-4.7-6.56-7.52-9.42c-2.48-2.53-5.5-4.89-8.98-5.81    c-3.37-0.9-7.12-0.53-9.78,1.91c-2.98,2.73-3.14,7.45-0.38,10.4c4.64,4.96,12.29,1.07,14.74-4.15c3.57-7.61-1.07-16.59-5.98-22.4    c-4.69-5.54-11.08-10.25-18.52-10.89c-3.89-0.34-7.67,0.75-11.11,2.5c-1.87,0.95-3.67,2.04-5.45,3.15    c-1.51,0.95-3.04,1.96-4.22,3.32c-2.58,2.96-3.22,7.09-1.38,10.61c1.57,3.02,4.74,5.25,8.24,4.94c3.46-0.3,6.54-2.7,8.12-5.73    c1.9-3.63,1.86-7.84,0.56-11.66c-2.58-7.58-10.34-11.82-17.62-13.83c-7.96-2.2-16.48-2.02-24.34,0.53    c-6.65,2.15-14.72,6.83-14.53,14.86c0.08,3.31,1.64,6.88,4.5,8.7c2.71,1.72,6.07,1.24,8.24-1.14c4.7-5.19,3.07-13.69-1.02-18.7    c-4.13-5.06-10.64-8.01-17.16-8.1c-8.13-0.11-15.81,3.66-22.42,8.07c-6.31,4.21-13.81,9.39-13.5,17.92    c0.13,3.64,1.99,7.79,5.78,8.88c3.54,1.02,6.74-1.46,7.86-4.76c2.08-6.11-2.36-13.61-8.7-14.79c-7.88-1.47-15.28,4.2-20.44,9.52    c-5.13,5.28-9.26,11.77-11.34,18.88c-2.03,6.95-2.28,14.89,0.73,21.62c1.4,3.13,3.7,6.31,7.01,7.6c2.81,1.09,5.94,0.45,8.06-1.7    c4.48-4.55,4.27-12.86-0.93-16.76c-5.39-4.04-12.98-2.71-17.66,1.76c-5.04,4.81-7.1,12.43-6.46,19.23    c1.25,13.33,11.53,24.91,24.81,27.15c1.15,0.19,1.59-1.75,1.57-2.52C77.38,151.84,76.89,150.71,75.72,150.51L75.72,150.51z" style="fill: #1F3C88; fill-opacity: 1;"></path></svg> <svg y="402" viewBox="-103.18339538574219 -24.82928466796875 202.59559631347656 24.850988388061523" x="186.20221023559571" height="24.850988388061523" width="202.59559631347656" style="overflow: visible;"><g fill="#4f6d55" fill-opacity="1" style=""><path d="M8.55 0L1.66 0L1.66-11.83L8.37-11.83L8.37-10.69L2.99-10.69L2.99-6.79L7.52-6.79L7.52-5.67L2.99-5.67L2.99-1.13L8.55-1.13L8.55 0Z" transform="translate(-4.896 0), rotate(14.260199456029001 5.103 -406.1834688175791)"></path><path d="M2.92 0L1.66 0L1.66-11.83L3.02-11.83L7.49-4.16L8.78-1.73L8.86-1.73Q8.80-2.63 8.74-3.57Q8.68-4.52 8.68-5.42L8.68-5.42L8.68-11.83L9.94-11.83L9.94 0L8.57 0L4.10-7.67L2.81-10.10L2.74-10.10Q2.81-9.22 2.86-8.31Q2.92-7.40 2.92-6.48L2.92-6.48L2.92 0Z" transform="translate(-5.976 0), rotate(12.61740707162284 5.796000000000001 -406.1834688175791)"></path><path d="M6.21 0.22L6.21 0.22Q4.66 0.22 3.47-0.51Q2.29-1.24 1.61-2.62Q0.94-4.00 0.94-5.90L0.94-5.90Q0.94-7.34 1.34-8.47Q1.75-9.59 2.47-10.40Q3.19-11.21 4.17-11.63Q5.15-12.04 6.32-12.04L6.32-12.04Q7.54-12.04 8.36-11.58Q9.18-11.12 9.68-10.60L9.68-10.60L8.95-9.72Q8.50-10.21 7.88-10.54Q7.27-10.87 6.35-10.87L6.35-10.87Q5.11-10.87 4.21-10.27Q3.31-9.67 2.82-8.56Q2.32-7.45 2.32-5.94L2.32-5.94Q2.32-4.41 2.79-3.29Q3.26-2.18 4.16-1.57Q5.06-0.95 6.34-0.95L6.34-0.95Q7.02-0.95 7.63-1.15Q8.24-1.35 8.60-1.71L8.60-1.71L8.60-4.93L6.01-4.93L6.01-6.05L9.83-6.05L9.83-1.15Q9.27-0.56 8.34-0.17Q7.42 0.22 6.21 0.22Z" transform="translate(-5.706 0), rotate(10.852221214868532 5.382000000000001 -406.1834688175791)"></path><path d="M1.42 0L0.07 0L4.12-11.83L5.60-11.83L9.63 0L8.23 0L6.08-6.70Q5.76-7.70 5.46-8.69Q5.17-9.67 4.86-10.71L4.86-10.71L4.79-10.71Q4.52-9.67 4.22-8.69Q3.92-7.70 3.58-6.70L3.58-6.70L1.42 0ZM7.52-3.73L2.12-3.73L2.12-4.79L7.52-4.79L7.52-3.73Z" transform="translate(-5.031000000000001 0), rotate(9.229827742520392 4.851000000000001 -406.1834688175791)"></path><path d="M6.21 0.22L6.21 0.22Q4.66 0.22 3.47-0.51Q2.29-1.24 1.61-2.62Q0.94-4.00 0.94-5.90L0.94-5.90Q0.94-7.34 1.34-8.47Q1.75-9.59 2.47-10.40Q3.19-11.21 4.17-11.63Q5.15-12.04 6.32-12.04L6.32-12.04Q7.54-12.04 8.36-11.58Q9.18-11.12 9.68-10.60L9.68-10.60L8.95-9.72Q8.50-10.21 7.88-10.54Q7.27-10.87 6.35-10.87L6.35-10.87Q5.11-10.87 4.21-10.27Q3.31-9.67 2.82-8.56Q2.32-7.45 2.32-5.94L2.32-5.94Q2.32-4.41 2.79-3.29Q3.26-2.18 4.16-1.57Q5.06-0.95 6.34-0.95L6.34-0.95Q7.02-0.95 7.63-1.15Q8.24-1.35 8.60-1.71L8.60-1.71L8.60-4.93L6.01-4.93L6.01-6.05L9.83-6.05L9.83-1.15Q9.27-0.56 8.34-0.17Q7.42 0.22 6.21 0.22Z" transform="translate(-5.706 0), rotate(7.607434270172253 5.382000000000001 -406.1834688175791)"></path><path d="M8.55 0L1.66 0L1.66-11.83L8.37-11.83L8.37-10.69L2.99-10.69L2.99-6.79L7.52-6.79L7.52-5.67L2.99-5.67L2.99-1.13L8.55-1.13L8.55 0Z" transform="translate(-4.896 0), rotate(6.005439709882136 5.103 -406.1834688175791)"></path><path d="M2.18 0.22L2.18 0.22Q1.78 0.22 1.49-0.07Q1.19-0.36 1.19-0.83L1.19-0.83Q1.19-1.31 1.49-1.60Q1.78-1.89 2.18-1.89L2.18-1.89Q2.59-1.89 2.88-1.60Q3.17-1.31 3.17-0.83L3.17-0.83Q3.17-0.36 2.88-0.07Q2.59 0.22 2.18 0.22Z" transform="translate(-2.3580000000000005 0), rotate(4.909338168631004 2.178 -406.1834688175791)"></path><path d="" transform="translate(-1.9800000000000002 0), rotate(4.253853127833182 0 -406.1834688175791)"></path><path d="M8.21 0L1.66 0L1.66-11.83L2.99-11.83L2.99-1.13L8.21-1.13L8.21 0Z" transform="translate(-4.509 0), rotate(3.273345421577517 4.932 -406.1834688175791)"></path><path d="M8.55 0L1.66 0L1.66-11.83L8.37-11.83L8.37-10.69L2.99-10.69L2.99-6.79L7.52-6.79L7.52-5.67L2.99-5.67L2.99-1.13L8.55-1.13L8.55 0Z" transform="translate(-4.896 0), rotate(1.8522212148685409 5.103 -406.1834688175791)"></path><path d="M1.42 0L0.07 0L4.12-11.83L5.60-11.83L9.63 0L8.23 0L6.08-6.70Q5.76-7.70 5.46-8.69Q5.17-9.67 4.86-10.71L4.86-10.71L4.79-10.71Q4.52-9.67 4.22-8.69Q3.92-7.70 3.58-6.70L3.58-6.70L1.42 0ZM7.52-3.73L2.12-3.73L2.12-4.79L7.52-4.79L7.52-3.73Z" transform="translate(-5.031000000000001 0), rotate(0.35222121486854086 4.851000000000001 -406.1834688175791)"></path><path d="M2.99 0L1.66 0L1.66-11.83L5.27-11.83Q6.46-11.83 7.38-11.51Q8.30-11.20 8.82-10.48Q9.34-9.76 9.34-8.55L9.34-8.55Q9.34-7.40 8.82-6.63Q8.30-5.87 7.38-5.49Q6.46-5.11 5.27-5.11L5.27-5.11L2.99-5.11L2.99 0ZM9.67 0L8.15 0L5.00-5.47L6.08-6.12L9.67 0ZM2.99-10.75L2.99-6.19L5.06-6.19Q6.50-6.19 7.25-6.78Q8.01-7.36 8.01-8.55L8.01-8.55Q8.01-9.76 7.25-10.25Q6.50-10.75 5.06-10.75L5.06-10.75L2.99-10.75Z" transform="translate(-5.247 0), rotate(-1.2008159564823195 5.661 -406.1834688175791)"></path><path d="M2.92 0L1.66 0L1.66-11.83L3.02-11.83L7.49-4.16L8.78-1.73L8.86-1.73Q8.80-2.63 8.74-3.57Q8.68-4.52 8.68-5.42L8.68-5.42L8.68-11.83L9.94-11.83L9.94 0L8.57 0L4.10-7.67L2.81-10.10L2.74-10.10Q2.81-9.22 2.86-8.31Q2.92-7.40 2.92-6.48L2.92-6.48L2.92 0Z" transform="translate(-5.976 0), rotate(-2.8966455122393455 5.796000000000001 -406.1834688175791)"></path><path d="M2.18 0.22L2.18 0.22Q1.78 0.22 1.49-0.07Q1.19-0.36 1.19-0.83L1.19-0.83Q1.19-1.31 1.49-1.60Q1.78-1.89 2.18-1.89L2.18-1.89Q2.59-1.89 2.88-1.60Q3.17-1.31 3.17-0.83L3.17-0.83Q3.17-0.36 2.88-0.07Q2.59 0.22 2.18 0.22Z" transform="translate(-2.3580000000000005 0), rotate(-4.155938349954663 2.178 -406.1834688175791)"></path><path d="" transform="translate(-1.9800000000000002 0), rotate(-4.811423390752491 0 -406.1834688175791)"></path><path d="M5.47 0L4.14 0L4.14-10.69L0.50-10.69L0.50-11.83L9.09-11.83L9.09-10.69L5.47-10.69L5.47 0Z" transform="translate(-4.977 0), rotate(-5.862647325475969 4.797000000000001 -406.1834688175791)"></path><path d="M2.99 0L1.66 0L1.66-11.83L2.99-11.83L2.99-6.82L8.69-6.82L8.69-11.83L10.03-11.83L10.03 0L8.69 0L8.69-5.65L2.99-5.65L2.99 0Z" transform="translate(-6.0120000000000005 0), rotate(-7.52311876699909 5.841000000000001 -406.1834688175791)"></path><path d="M2.99 0L1.66 0L1.66-11.83L5.27-11.83Q6.46-11.83 7.38-11.51Q8.30-11.20 8.82-10.48Q9.34-9.76 9.34-8.55L9.34-8.55Q9.34-7.40 8.82-6.63Q8.30-5.87 7.38-5.49Q6.46-5.11 5.27-5.11L5.27-5.11L2.99-5.11L2.99 0ZM9.67 0L8.15 0L5.00-5.47L6.08-6.12L9.67 0ZM2.99-10.75L2.99-6.19L5.06-6.19Q6.50-6.19 7.25-6.78Q8.01-7.36 8.01-8.55L8.01-8.55Q8.01-9.76 7.25-10.25Q6.50-10.75 5.06-10.75L5.06-10.75L2.99-10.75Z" transform="translate(-5.247 0), rotate(-9.224388032638252 5.661 -406.1834688175791)"></path><path d="M2.99 0L1.66 0L1.66-11.83L2.99-11.83L2.99 0Z" transform="translate(-2.4930000000000003 0), rotate(-10.393925657298269 2.322 -406.1834688175791)"></path><path d="M5.36 0L3.83 0L0.02-11.83L1.44-11.83L3.42-5.31Q3.74-4.25 4.00-3.34Q4.25-2.43 4.57-1.39L4.57-1.39L4.64-1.39Q4.99-2.43 5.25-3.34Q5.51-4.25 5.81-5.31L5.81-5.31L7.79-11.83L9.14-11.83L5.36 0Z" transform="translate(-4.761 0), rotate(-11.490027198549399 4.581 -406.1834688175791)"></path><path d="M8.55 0L1.66 0L1.66-11.83L8.37-11.83L8.37-10.69L2.99-10.69L2.99-6.79L7.52-6.79L7.52-5.67L2.99-5.67L2.99-1.13L8.55-1.13L8.55 0Z" transform="translate(-4.896 0), rotate(-12.94922937443335 5.103 -406.1834688175791)"></path><path d="M2.18 0.22L2.18 0.22Q1.78 0.22 1.49-0.07Q1.19-0.36 1.19-0.83L1.19-0.83Q1.19-1.31 1.49-1.60Q1.78-1.89 2.18-1.89L2.18-1.89Q2.59-1.89 2.88-1.60Q3.17-1.31 3.17-0.83L3.17-0.83Q3.17-0.36 2.88-0.07Q2.59 0.22 2.18 0.22Z" transform="translate(-2.3580000000000005 0), rotate(-14.045330915684485 2.178 -406.1834688175791)"></path><path d="" transform="translate(-1.9800000000000002 0), rotate(-14.700815956482312 0 -406.1834688175791)"></path></g></svg> <svg y="361" viewBox="1.409999966621399 6.940000057220459 333.7300109863281 23.299999237060547" x="120.635" height="23.299999237060547" width="333.7300109863281" style="overflow: visible;"><g fill="#1F3C88" fill-opacity="1" style=""><path d="M7.81 29.92L6.56 29.92Q6.14 29.92 5.90 29.70Q5.66 29.47 5.57 29.06L5.57 29.06L1.44 8.51Q1.41 8.38 1.41 8.29Q1.41 8.19 1.41 8.16L1.41 8.16Q1.41 7.90 1.60 7.71Q1.79 7.52 2.05 7.52L2.05 7.52L3.71 7.52Q4.38 7.52 4.48 8.06L4.48 8.06L7.74 24.58L11.20 13.25Q11.30 12.96 11.54 12.72Q11.78 12.48 12.22 12.48L12.22 12.48L13.41 12.48Q13.89 12.48 14.11 12.72Q14.34 12.96 14.40 13.25L14.40 13.25L17.89 24.58L21.12 8.06Q21.22 7.52 21.92 7.52L21.92 7.52L23.58 7.52Q23.84 7.52 24.03 7.71Q24.22 7.90 24.22 8.16L24.22 8.16Q24.22 8.19 24.21 8.29Q24.19 8.38 24.19 8.51L24.19 8.51L20.06 29.06Q19.97 29.47 19.73 29.70Q19.49 29.92 19.07 29.92L19.07 29.92L17.82 29.92Q17.38 29.92 17.12 29.70Q16.86 29.47 16.77 29.12L16.77 29.12L12.80 16.93L8.86 29.12Q8.74 29.47 8.50 29.70Q8.26 29.92 7.81 29.92L7.81 29.92ZM32 30.24L32 30.24Q30.40 30.24 29.09 29.60Q27.78 28.96 26.98 27.87Q26.18 26.78 26.18 25.41L26.18 25.41Q26.18 23.20 27.97 21.89Q29.76 20.58 32.64 20.16L32.64 20.16L37.41 19.49L37.41 18.56Q37.41 17.02 36.53 16.16Q35.65 15.30 33.66 15.30L33.66 15.30Q32.26 15.30 31.36 15.87Q30.46 16.45 30.11 17.34L30.11 17.34Q29.92 17.82 29.44 17.82L29.44 17.82L28 17.82Q27.65 17.82 27.47 17.62Q27.30 17.41 27.30 17.12L27.30 17.12Q27.30 16.64 27.66 15.94Q28.03 15.23 28.80 14.56Q29.57 13.89 30.77 13.42Q31.97 12.96 33.70 12.96L33.70 12.96Q35.62 12.96 36.93 13.46Q38.24 13.95 38.99 14.78Q39.74 15.62 40.08 16.67Q40.42 17.73 40.42 18.82L40.42 18.82L40.42 29.18Q40.42 29.50 40.21 29.71Q40 29.92 39.68 29.92L39.68 29.92L38.21 29.92Q37.86 29.92 37.66 29.71Q37.47 29.50 37.47 29.18L37.47 29.18L37.47 27.81Q37.06 28.38 36.35 28.94Q35.65 29.50 34.59 29.87Q33.54 30.24 32 30.24ZM32.67 27.84L32.67 27.84Q33.98 27.84 35.07 27.28Q36.16 26.72 36.78 25.54Q37.41 24.35 37.41 22.56L37.41 22.56L37.41 21.66L33.70 22.21Q31.42 22.53 30.27 23.28Q29.12 24.03 29.12 25.18L29.12 25.18Q29.12 26.08 29.65 26.67Q30.18 27.26 30.99 27.55Q31.81 27.84 32.67 27.84ZM46.69 29.92L45.12 29.92Q44.80 29.92 44.59 29.71Q44.38 29.50 44.38 29.18L44.38 29.18L44.38 14.05Q44.38 13.73 44.59 13.50Q44.80 13.28 45.12 13.28L45.12 13.28L46.59 13.28Q46.91 13.28 47.14 13.50Q47.36 13.73 47.36 14.05L47.36 14.05L47.36 15.46Q48.00 14.37 49.12 13.82Q50.24 13.28 51.84 13.28L51.84 13.28L53.09 13.28Q53.41 13.28 53.62 13.49Q53.82 13.70 53.82 14.02L53.82 14.02L53.82 15.33Q53.82 15.65 53.62 15.84Q53.41 16.03 53.09 16.03L53.09 16.03L51.17 16.03Q49.44 16.03 48.45 17.04Q47.46 18.05 47.46 19.78L47.46 19.78L47.46 29.18Q47.46 29.50 47.23 29.71Q47.01 29.92 46.69 29.92L46.69 29.92ZM58.21 29.92L56.64 29.92Q56.32 29.92 56.11 29.71Q55.90 29.50 55.90 29.18L55.90 29.18L55.90 14.05Q55.90 13.73 56.11 13.50Q56.32 13.28 56.64 13.28L56.64 13.28L58.11 13.28Q58.43 13.28 58.66 13.50Q58.88 13.73 58.88 14.05L58.88 14.05L58.88 15.46Q59.52 14.37 60.64 13.82Q61.76 13.28 63.36 13.28L63.36 13.28L64.61 13.28Q64.93 13.28 65.14 13.49Q65.34 13.70 65.34 14.02L65.34 14.02L65.34 15.33Q65.34 15.65 65.14 15.84Q64.93 16.03 64.61 16.03L64.61 16.03L62.69 16.03Q60.96 16.03 59.97 17.04Q58.98 18.05 58.98 19.78L58.98 19.78L58.98 29.18Q58.98 29.50 58.75 29.71Q58.53 29.92 58.21 29.92L58.21 29.92ZM74.08 30.24L74.08 30.24Q70.75 30.24 68.80 28.21Q66.85 26.18 66.66 22.66L66.66 22.66Q66.62 22.24 66.62 21.58Q66.62 20.93 66.66 20.51L66.66 20.51Q66.78 18.24 67.71 16.53Q68.64 14.82 70.26 13.89Q71.87 12.96 74.05 12.96L74.05 12.96Q76.48 12.96 78.13 13.98Q79.78 15.01 80.64 16.90Q81.50 18.78 81.50 21.31L81.50 21.31L81.50 21.86Q81.50 22.21 81.30 22.40Q81.09 22.59 80.77 22.59L80.77 22.59L69.70 22.59Q69.70 22.62 69.70 22.72Q69.70 22.82 69.70 22.88L69.70 22.88Q69.76 24.19 70.27 25.33Q70.78 26.46 71.76 27.17Q72.74 27.87 74.05 27.87L74.05 27.87Q75.20 27.87 75.97 27.52Q76.74 27.17 77.22 26.74Q77.70 26.30 77.86 26.05L77.86 26.05Q78.14 25.66 78.30 25.58Q78.46 25.50 78.82 25.50L78.82 25.50L80.38 25.50Q80.67 25.50 80.88 25.68Q81.09 25.86 81.06 26.18L81.06 26.18Q81.02 26.66 80.54 27.34Q80.06 28.03 79.18 28.70Q78.30 29.38 77.01 29.81Q75.71 30.24 74.08 30.24ZM69.70 20.29L69.70 20.38L78.46 20.38L78.46 20.29Q78.46 18.85 77.94 17.73Q77.41 16.61 76.42 15.95Q75.42 15.30 74.05 15.30L74.05 15.30Q72.67 15.30 71.70 15.95Q70.72 16.61 70.21 17.73Q69.70 18.85 69.70 20.29L69.70 20.29ZM87.04 29.92L85.44 29.92Q85.12 29.92 84.91 29.71Q84.70 29.50 84.70 29.18L84.70 29.18L84.70 14.02Q84.70 13.70 84.91 13.49Q85.12 13.28 85.44 13.28L85.44 13.28L86.94 13.28Q87.26 13.28 87.47 13.49Q87.68 13.70 87.68 14.02L87.68 14.02L87.68 15.42Q88.51 14.34 89.78 13.65Q91.04 12.96 93.02 12.96L93.02 12.96Q95.10 12.96 96.56 13.87Q98.02 14.78 98.77 16.40Q99.52 18.02 99.52 20.16L99.52 20.16L99.52 29.18Q99.52 29.50 99.31 29.71Q99.10 29.92 98.78 29.92L98.78 29.92L97.18 29.92Q96.86 29.92 96.66 29.71Q96.45 29.50 96.45 29.18L96.45 29.18L96.45 20.32Q96.45 18.08 95.36 16.82Q94.27 15.55 92.16 15.55L92.16 15.55Q90.18 15.55 88.98 16.82Q87.78 18.08 87.78 20.32L87.78 20.32L87.78 29.18Q87.78 29.50 87.57 29.71Q87.36 29.92 87.04 29.92L87.04 29.92ZM119.23 29.92L111.81 29.92Q111.46 29.92 111.26 29.71Q111.07 29.50 111.07 29.18L111.07 29.18L111.07 8.29Q111.07 7.94 111.26 7.73Q111.46 7.52 111.81 7.52L111.81 7.52L119.07 7.52Q122.37 7.52 124.38 8.51Q126.40 9.50 127.33 11.44Q128.26 13.38 128.29 16.19L128.29 16.19Q128.32 17.63 128.32 18.72Q128.32 19.81 128.29 21.22L128.29 21.22Q128.22 24.16 127.31 26.10Q126.40 28.03 124.43 28.98Q122.46 29.92 119.23 29.92L119.23 29.92ZM114.21 10.24L114.21 27.20L119.07 27.20Q121.28 27.20 122.59 26.59Q123.90 25.98 124.50 24.64Q125.09 23.30 125.12 21.09L125.12 21.09Q125.18 20.13 125.18 19.41Q125.18 18.69 125.18 17.97Q125.18 17.25 125.12 16.32L125.12 16.32Q125.06 13.22 123.65 11.73Q122.24 10.24 118.91 10.24L118.91 10.24L114.21 10.24ZM138.88 30.24L138.88 30.24Q136.45 30.24 134.82 29.31Q133.18 28.38 132.32 26.74Q131.46 25.09 131.36 22.98L131.36 22.98Q131.33 22.43 131.33 21.58Q131.33 20.74 131.36 20.22L131.36 20.22Q131.46 18.08 132.34 16.45Q133.22 14.82 134.85 13.89Q136.48 12.96 138.88 12.96L138.88 12.96Q141.28 12.96 142.91 13.89Q144.54 14.82 145.42 16.45Q146.30 18.08 146.40 20.22L146.40 20.22Q146.43 20.74 146.43 21.58Q146.43 22.43 146.40 22.98L146.40 22.98Q146.30 25.09 145.44 26.74Q144.58 28.38 142.94 29.31Q141.31 30.24 138.88 30.24ZM138.88 27.78L138.88 27.78Q140.86 27.78 142.05 26.51Q143.23 25.25 143.33 22.82L143.33 22.82Q143.36 22.34 143.36 21.60Q143.36 20.86 143.33 20.38L143.33 20.38Q143.23 17.95 142.05 16.69Q140.86 15.42 138.88 15.42L138.88 15.42Q136.90 15.42 135.70 16.69Q134.50 17.95 134.43 20.38L134.43 20.38Q134.40 20.86 134.40 21.60Q134.40 22.34 134.43 22.82L134.43 22.82Q134.50 25.25 135.70 26.51Q136.90 27.78 138.88 27.78ZM155.87 30.24L155.87 30.24Q154.11 30.24 152.83 29.62Q151.55 28.99 150.74 27.92Q149.92 26.85 149.52 25.47Q149.12 24.10 149.06 22.56L149.06 22.56Q149.02 22.05 149.02 21.60Q149.02 21.15 149.06 20.64L149.06 20.64Q149.12 19.14 149.52 17.76Q149.92 16.38 150.74 15.30Q151.55 14.21 152.83 13.58Q154.11 12.96 155.87 12.96L155.87 12.96Q157.76 12.96 159.01 13.63Q160.26 14.30 161.06 15.30L161.06 15.30L161.06 7.94Q161.06 7.62 161.26 7.41Q161.47 7.20 161.79 7.20L161.79 7.20L163.33 7.20Q163.65 7.20 163.86 7.41Q164.06 7.62 164.06 7.94L164.06 7.94L164.06 29.18Q164.06 29.50 163.86 29.71Q163.65 29.92 163.33 29.92L163.33 29.92L161.89 29.92Q161.54 29.92 161.34 29.71Q161.15 29.50 161.15 29.18L161.15 29.18L161.15 27.84Q160.35 28.86 159.07 29.55Q157.79 30.24 155.87 30.24ZM156.54 27.65L156.54 27.65Q158.14 27.65 159.10 26.91Q160.06 26.18 160.54 25.04Q161.02 23.90 161.06 22.72L161.06 22.72Q161.09 22.21 161.09 21.49Q161.09 20.77 161.06 20.26L161.06 20.26Q161.02 19.14 160.53 18.05Q160.03 16.96 159.06 16.26Q158.08 15.55 156.54 15.55L156.54 15.55Q154.91 15.55 153.95 16.27Q152.99 16.99 152.58 18.16Q152.16 19.33 152.10 20.67L152.10 20.67Q152.06 21.60 152.10 22.53L152.10 22.53Q152.16 23.87 152.58 25.04Q152.99 26.21 153.95 26.93Q154.91 27.65 156.54 27.65ZM174.27 30.24L174.27 30.24Q172.51 30.24 171.23 29.62Q169.95 28.99 169.14 27.92Q168.32 26.85 167.92 25.47Q167.52 24.10 167.46 22.56L167.46 22.56Q167.42 22.05 167.42 21.60Q167.42 21.15 167.46 20.64L167.46 20.64Q167.52 19.14 167.92 17.76Q168.32 16.38 169.14 15.30Q169.95 14.21 171.23 13.58Q172.51 12.96 174.27 12.96L174.27 12.96Q176.16 12.96 177.41 13.63Q178.66 14.30 179.46 15.30L179.46 15.30L179.46 7.94Q179.46 7.62 179.66 7.41Q179.87 7.20 180.19 7.20L180.19 7.20L181.73 7.20Q182.05 7.20 182.26 7.41Q182.46 7.62 182.46 7.94L182.46 7.94L182.46 29.18Q182.46 29.50 182.26 29.71Q182.05 29.92 181.73 29.92L181.73 29.92L180.29 29.92Q179.94 29.92 179.74 29.71Q179.55 29.50 179.55 29.18L179.55 29.18L179.55 27.84Q178.75 28.86 177.47 29.55Q176.19 30.24 174.27 30.24ZM174.94 27.65L174.94 27.65Q176.54 27.65 177.50 26.91Q178.46 26.18 178.94 25.04Q179.42 23.90 179.46 22.72L179.46 22.72Q179.49 22.21 179.49 21.49Q179.49 20.77 179.46 20.26L179.46 20.26Q179.42 19.14 178.93 18.05Q178.43 16.96 177.46 16.26Q176.48 15.55 174.94 15.55L174.94 15.55Q173.31 15.55 172.35 16.27Q171.39 16.99 170.98 18.16Q170.56 19.33 170.50 20.67L170.50 20.67Q170.46 21.60 170.50 22.53L170.50 22.53Q170.56 23.87 170.98 25.04Q171.39 26.21 172.35 26.93Q173.31 27.65 174.94 27.65ZM208.42 29.92L194.94 29.92Q194.59 29.92 194.40 29.71Q194.21 29.50 194.21 29.18L194.21 29.18L194.21 8.29Q194.21 7.94 194.40 7.73Q194.59 7.52 194.94 7.52L194.94 7.52L208.16 7.52Q208.51 7.52 208.70 7.73Q208.90 7.94 208.90 8.29L208.90 8.29L208.90 9.50Q208.90 9.86 208.70 10.05Q208.51 10.24 208.16 10.24L208.16 10.24L197.28 10.24L197.28 17.25L207.46 17.25Q207.81 17.25 208.00 17.46Q208.19 17.66 208.19 18.02L208.19 18.02L208.19 19.20Q208.19 19.52 208.00 19.73Q207.81 19.94 207.46 19.94L207.46 19.94L197.28 19.94L197.28 27.20L208.42 27.20Q208.77 27.20 208.96 27.39Q209.15 27.58 209.15 27.94L209.15 27.94L209.15 29.18Q209.15 29.50 208.96 29.71Q208.77 29.92 208.42 29.92L208.42 29.92ZM218.62 30.24L218.62 30.24Q216.86 30.24 215.58 29.62Q214.30 28.99 213.49 27.92Q212.67 26.85 212.27 25.47Q211.87 24.10 211.81 22.56L211.81 22.56Q211.78 22.05 211.78 21.60Q211.78 21.15 211.81 20.64L211.81 20.64Q211.87 19.14 212.27 17.76Q212.67 16.38 213.49 15.30Q214.30 14.21 215.58 13.58Q216.86 12.96 218.62 12.96L218.62 12.96Q220.51 12.96 221.76 13.63Q223.01 14.30 223.81 15.30L223.81 15.30L223.81 7.94Q223.81 7.62 224.02 7.41Q224.22 7.20 224.54 7.20L224.54 7.20L226.08 7.20Q226.40 7.20 226.61 7.41Q226.82 7.62 226.82 7.94L226.82 7.94L226.82 29.18Q226.82 29.50 226.61 29.71Q226.40 29.92 226.08 29.92L226.08 29.92L224.64 29.92Q224.29 29.92 224.10 29.71Q223.90 29.50 223.90 29.18L223.90 29.18L223.90 27.84Q223.10 28.86 221.82 29.55Q220.54 30.24 218.62 30.24ZM219.30 27.65L219.30 27.65Q220.90 27.65 221.86 26.91Q222.82 26.18 223.30 25.04Q223.78 23.90 223.81 22.72L223.81 22.72Q223.84 22.21 223.84 21.49Q223.84 20.77 223.81 20.26L223.81 20.26Q223.78 19.14 223.28 18.05Q222.78 16.96 221.81 16.26Q220.83 15.55 219.30 15.55L219.30 15.55Q217.66 15.55 216.70 16.27Q215.74 16.99 215.33 18.16Q214.91 19.33 214.85 20.67L214.85 20.67Q214.82 21.60 214.85 22.53L214.85 22.53Q214.91 23.87 215.33 25.04Q215.74 26.21 216.70 26.93Q217.66 27.65 219.30 27.65ZM237.15 30.24L237.15 30.24Q235.10 30.24 233.68 29.33Q232.26 28.42 231.52 26.78Q230.78 25.15 230.78 23.04L230.78 23.04L230.78 14.02Q230.78 13.70 230.99 13.49Q231.20 13.28 231.52 13.28L231.52 13.28L233.12 13.28Q233.44 13.28 233.65 13.49Q233.86 13.70 233.86 14.02L233.86 14.02L233.86 22.88Q233.86 27.65 238.02 27.65L238.02 27.65Q240.00 27.65 241.20 26.38Q242.40 25.12 242.40 22.88L242.40 22.88L242.40 14.02Q242.40 13.70 242.61 13.49Q242.82 13.28 243.14 13.28L243.14 13.28L244.74 13.28Q245.06 13.28 245.25 13.49Q245.44 13.70 245.44 14.02L245.44 14.02L245.44 29.18Q245.44 29.50 245.25 29.71Q245.06 29.92 244.74 29.92L244.74 29.92L243.23 29.92Q242.91 29.92 242.70 29.71Q242.50 29.50 242.50 29.18L242.50 29.18L242.50 27.78Q241.63 28.90 240.40 29.57Q239.17 30.24 237.15 30.24ZM256.29 30.24L256.29 30.24Q254.02 30.24 252.37 29.36Q250.72 28.48 249.82 26.83Q248.93 25.18 248.86 22.88L248.86 22.88Q248.83 22.40 248.83 21.60Q248.83 20.80 248.86 20.32L248.86 20.32Q248.93 18.02 249.82 16.37Q250.72 14.72 252.37 13.84Q254.02 12.96 256.29 12.96L256.29 12.96Q258.14 12.96 259.47 13.47Q260.80 13.98 261.66 14.78Q262.53 15.58 262.96 16.51Q263.39 17.44 263.42 18.27L263.42 18.27Q263.46 18.59 263.23 18.78Q263.01 18.98 262.69 18.98L262.69 18.98L261.15 18.98Q260.83 18.98 260.67 18.83Q260.51 18.69 260.35 18.34L260.35 18.34Q259.78 16.77 258.78 16.13Q257.79 15.49 256.32 15.49L256.32 15.49Q254.40 15.49 253.20 16.67Q252.00 17.86 251.90 20.48L251.90 20.48Q251.87 21.63 251.90 22.72L251.90 22.72Q252.00 25.38 253.20 26.54Q254.40 27.71 256.32 27.71L256.32 27.71Q257.79 27.71 258.78 27.07Q259.78 26.43 260.35 24.86L260.35 24.86Q260.51 24.51 260.67 24.35Q260.83 24.19 261.15 24.19L261.15 24.19L262.69 24.19Q263.01 24.19 263.23 24.40Q263.46 24.61 263.42 24.93L263.42 24.93Q263.39 25.60 263.14 26.30Q262.88 27.01 262.32 27.73Q261.76 28.45 260.93 29.01Q260.10 29.57 258.94 29.90Q257.79 30.24 256.29 30.24ZM271.23 30.24L271.23 30.24Q269.63 30.24 268.32 29.60Q267.01 28.96 266.21 27.87Q265.41 26.78 265.41 25.41L265.41 25.41Q265.41 23.20 267.20 21.89Q268.99 20.58 271.87 20.16L271.87 20.16L276.64 19.49L276.64 18.56Q276.64 17.02 275.76 16.16Q274.88 15.30 272.90 15.30L272.90 15.30Q271.49 15.30 270.59 15.87Q269.70 16.45 269.34 17.34L269.34 17.34Q269.15 17.82 268.67 17.82L268.67 17.82L267.23 17.82Q266.88 17.82 266.70 17.62Q266.53 17.41 266.53 17.12L266.53 17.12Q266.53 16.64 266.90 15.94Q267.26 15.23 268.03 14.56Q268.80 13.89 270.00 13.42Q271.20 12.96 272.93 12.96L272.93 12.96Q274.85 12.96 276.16 13.46Q277.47 13.95 278.22 14.78Q278.98 15.62 279.31 16.67Q279.65 17.73 279.65 18.82L279.65 18.82L279.65 29.18Q279.65 29.50 279.44 29.71Q279.23 29.92 278.91 29.92L278.91 29.92L277.44 29.92Q277.09 29.92 276.90 29.71Q276.70 29.50 276.70 29.18L276.70 29.18L276.70 27.81Q276.29 28.38 275.58 28.94Q274.88 29.50 273.82 29.87Q272.77 30.24 271.23 30.24ZM271.90 27.84L271.90 27.84Q273.22 27.84 274.30 27.28Q275.39 26.72 276.02 25.54Q276.64 24.35 276.64 22.56L276.64 22.56L276.64 21.66L272.93 22.21Q270.66 22.53 269.50 23.28Q268.35 24.03 268.35 25.18L268.35 25.18Q268.35 26.08 268.88 26.67Q269.41 27.26 270.22 27.55Q271.04 27.84 271.90 27.84ZM292.32 29.92L290.11 29.92Q288.32 29.92 287.20 29.23Q286.08 28.54 285.57 27.28Q285.06 26.02 285.06 24.29L285.06 24.29L285.06 15.84L282.56 15.84Q282.24 15.84 282.03 15.63Q281.82 15.42 281.82 15.10L281.82 15.10L281.82 14.02Q281.82 13.70 282.03 13.49Q282.24 13.28 282.56 13.28L282.56 13.28L285.06 13.28L285.06 7.94Q285.06 7.62 285.26 7.41Q285.47 7.20 285.79 7.20L285.79 7.20L287.30 7.20Q287.62 7.20 287.82 7.41Q288.03 7.62 288.03 7.94L288.03 7.94L288.03 13.28L292.00 13.28Q292.35 13.28 292.54 13.49Q292.74 13.70 292.74 14.02L292.74 14.02L292.74 15.10Q292.74 15.42 292.54 15.63Q292.35 15.84 292.00 15.84L292.00 15.84L288.03 15.84L288.03 24.06Q288.03 25.57 288.54 26.43Q289.06 27.30 290.37 27.30L290.37 27.30L292.32 27.30Q292.64 27.30 292.85 27.50Q293.06 27.71 293.06 28.03L293.06 28.03L293.06 29.18Q293.06 29.50 292.85 29.71Q292.64 29.92 292.32 29.92L292.32 29.92ZM297.76 29.92L296.22 29.92Q295.90 29.92 295.70 29.71Q295.49 29.50 295.49 29.18L295.49 29.18L295.49 14.02Q295.49 13.70 295.70 13.49Q295.90 13.28 296.22 13.28L296.22 13.28L297.76 13.28Q298.08 13.28 298.29 13.49Q298.50 13.70 298.50 14.02L298.50 14.02L298.50 29.18Q298.50 29.50 298.29 29.71Q298.08 29.92 297.76 29.92L297.76 29.92ZM297.98 10.18L295.97 10.18Q295.65 10.18 295.44 9.97Q295.23 9.76 295.23 9.44L295.23 9.44L295.23 7.71Q295.23 7.39 295.44 7.17Q295.65 6.94 295.97 6.94L295.97 6.94L297.98 6.94Q298.30 6.94 298.53 7.17Q298.75 7.39 298.75 7.71L298.75 7.71L298.75 9.44Q298.75 9.76 298.53 9.97Q298.30 10.18 297.98 10.18L297.98 10.18ZM309.41 30.24L309.41 30.24Q306.98 30.24 305.34 29.31Q303.71 28.38 302.85 26.74Q301.98 25.09 301.89 22.98L301.89 22.98Q301.86 22.43 301.86 21.58Q301.86 20.74 301.89 20.22L301.89 20.22Q301.98 18.08 302.86 16.45Q303.74 14.82 305.38 13.89Q307.01 12.96 309.41 12.96L309.41 12.96Q311.81 12.96 313.44 13.89Q315.07 14.82 315.95 16.45Q316.83 18.08 316.93 20.22L316.93 20.22Q316.96 20.74 316.96 21.58Q316.96 22.43 316.93 22.98L316.93 22.98Q316.83 25.09 315.97 26.74Q315.10 28.38 313.47 29.31Q311.84 30.24 309.41 30.24ZM309.41 27.78L309.41 27.78Q311.39 27.78 312.58 26.51Q313.76 25.25 313.86 22.82L313.86 22.82Q313.89 22.34 313.89 21.60Q313.89 20.86 313.86 20.38L313.86 20.38Q313.76 17.95 312.58 16.69Q311.39 15.42 309.41 15.42L309.41 15.42Q307.42 15.42 306.22 16.69Q305.02 17.95 304.96 20.38L304.96 20.38Q304.93 20.86 304.93 21.60Q304.93 22.34 304.96 22.82L304.96 22.82Q305.02 25.25 306.22 26.51Q307.42 27.78 309.41 27.78ZM322.66 29.92L321.06 29.92Q320.74 29.92 320.53 29.71Q320.32 29.50 320.32 29.18L320.32 29.18L320.32 14.02Q320.32 13.70 320.53 13.49Q320.74 13.28 321.06 13.28L321.06 13.28L322.56 13.28Q322.88 13.28 323.09 13.49Q323.30 13.70 323.30 14.02L323.30 14.02L323.30 15.42Q324.13 14.34 325.39 13.65Q326.66 12.96 328.64 12.96L328.64 12.96Q330.72 12.96 332.18 13.87Q333.63 14.78 334.38 16.40Q335.14 18.02 335.14 20.16L335.14 20.16L335.14 29.18Q335.14 29.50 334.93 29.71Q334.72 29.92 334.40 29.92L334.40 29.92L332.80 29.92Q332.48 29.92 332.27 29.71Q332.06 29.50 332.06 29.18L332.06 29.18L332.06 20.32Q332.06 18.08 330.98 16.82Q329.89 15.55 327.78 15.55L327.78 15.55Q325.79 15.55 324.59 16.82Q323.39 18.08 323.39 20.32L323.39 20.32L323.39 29.18Q323.39 29.50 323.18 29.71Q322.98 29.92 322.66 29.92L322.66 29.92Z" transform="translate(0, 0)"></path></g></svg></svg>